<?xml version="1.0" encoding="utf-8" ?>
<svg xmlns="http://www.w3.org/2000/svg" xmlns:xlink="http://www.w3.org/1999/xlink" viewBox="750 1300 3900 1300" width="450" height="150" shape-rendering="geometricPrecision">
	<path fill="#B71C1C" d="M3206.21 1558.89C3230.61 1557.57 3381.42 1553.17 3396.04 1563.2C3404.5 1590.69 3400.55 1773.49 3400.78 1813.35C3476.98 1814.45 3569.56 1803.46 3643.09 1816.43C3644.71 1835.9 3646.09 2007.45 3641.44 2012C3626.01 2027.12 3436.04 2020 3400.1 2020.72C3400.07 2051.57 3404.32 2251.99 3397.76 2264.96C3395.12 2270.18 3393.64 2270.4 3388.5 2272.24C3369.95 2272.46 3210.12 2275.62 3204.46 2269.52C3189.67 2253.58 3195.6 2057.85 3195.76 2020.02C3156.11 2020.38 2996.56 2025.41 2965.89 2016.54C2961.67 2015.32 2959.5 2014.77 2957.63 2010.6C2950.42 1994.5 2950.51 1837.53 2957.09 1820.33C2963.36 1814.8 2974.48 1814.17 2982.56 1813.44C3006.89 1811.26 3032.3 1812.83 3056.76 1812.84L3195.77 1812.91L3195.08 1663.24C3194.86 1634.16 3191.38 1600.45 3196.9 1572.02C3198.27 1564.95 3200.35 1562.84 3206.21 1558.89Z"/>
	<path fill="#B71C1C" d="M2461.57 1561.23C2461.85 1597.45 2461.07 1632.82 2454.36 1668.57C2434.69 1773.34 2370.92 1894.66 2295.78 1970.27C2272.74 1993.46 2246.72 2009.01 2214.83 2016.48C2174.97 2025.82 2089.41 2021.42 2046.25 2021.48L1705.24 2021.05L1065.52 2020.61L865.198 2020.23C839.419 2020.24 812.543 2023.16 786.906 2021.57C778.769 2021.06 769.946 2019.72 763.149 2014.87C762.214 2014.2 760.622 2012.91 759.846 2012.04C753.838 2005.33 752.336 1997.02 753.485 1988.25C754.335 1981.76 757.406 1976.24 762.927 1972.53C769.122 1968.36 777.23 1967.05 784.544 1966.75C810.115 1965.73 836.084 1967.54 861.719 1967.33L1108.1 1966.48L1807 1967.15L2022.36 1968.02C2062.34 1968.1 2103.61 1970.01 2143.39 1966.51C2165.34 1964.59 2188.75 1962.37 2208.4 1951.57C2274.37 1915.31 2357.2 1733.68 2375.11 1660.91C2392.58 1589.98 2391.49 1533.38 2369.59 1464.57C2359.62 1433.24 2333.44 1395.14 2310.51 1371.96C2302.53 1363.89 2291.89 1357.19 2284.76 1348.53C2281.77 1344.89 2281.92 1345.71 2283.44 1340.92C2296.86 1336.51 2318.51 1347.77 2330.73 1353.91C2440.79 1409.17 2550.18 1501.22 2591.22 1620.77C2607.11 1667.07 2598.28 1715.67 2604.73 1762.69L2607.87 1763.06C2629.34 1741.4 2636.21 1646.92 2636.16 1616.25C2636.13 1596.86 2635.22 1577.34 2634.13 1557.99C2700.44 1603.64 2752.34 1713.27 2766.78 1790.47C2779.11 1856.37 2776.51 1931.74 2736.93 1988.36C2714.1 2021.04 2681.49 2036.07 2642.94 2042.64C2632.81 2044.37 2620.23 2046.31 2610.15 2043.97L2608.53 2040.99C2615.38 2032.32 2624.92 2026.49 2633.04 2019.08C2653.08 2000.82 2668.98 1974.79 2680.88 1950.69C2701.73 1897.38 2700 1846.9 2689.33 1791.28C2687.73 1786.54 2685.48 1775.56 2681.34 1773.45C2670.64 1788.76 2665.78 1806.85 2657.11 1823.27C2633.89 1867.22 2590.78 1902 2541.28 1911.12C2535.96 1912.1 2529.08 1912.91 2524.42 1909.55C2519.53 1906.03 2517.43 1900.89 2517.3 1895C2516.99 1881.18 2529.79 1837.35 2532.86 1818.99C2552.05 1704.41 2528.79 1650.87 2461.57 1561.23Z"/>
	<path fill="#000000" stroke="#FFFFFF" stroke-width="0.5" vector-effect="non-scaling-stroke" d="M1827.99 1467.6C1845.72 1471.12 1865.97 1469.62 1884.04 1469.69C1918.21 1469.55 1952.37 1469.81 1986.53 1470.49C1995.09 1473.14 2008.65 1472.31 2017.98 1473.01C2056.11 1475.88 2087.93 1487.64 2115.74 1514.54C2142.39 1540.31 2159.03 1576.77 2159.29 1614.01C2159.54 1650.92 2142.8 1696.12 2112.48 1718.86C2098.96 1729.01 2081.32 1736.02 2069.47 1747.91C2081.7 1781.8 2156.07 1864.84 2157.07 1888.76C2156.54 1889.27 2156.08 1889.84 2155.5 1890.28C2142.77 1900.02 2088.7 1895.34 2071.77 1895.04C2037.54 1861.56 2004.79 1800.47 1979.95 1759.31L1907.97 1759.59C1907.68 1785.95 1914.26 1869.31 1901.66 1887.51C1898.64 1891.87 1894.19 1895.39 1888.81 1895.97C1870.68 1897.94 1838.06 1899.84 1822.59 1888.79C1819.35 1883.9 1819.63 1877.01 1819.33 1871.28C1815.4 1795.2 1818.77 1717.63 1818.37 1641.36L1817.63 1542.81C1817.51 1525.26 1816.16 1506.75 1818.21 1489.37C1819.31 1480.02 1821.74 1474.61 1827.99 1467.6ZM1906.95 1686.37C1951.98 1687.45 2005.45 1694.3 2044.96 1667.7C2058.3 1656.77 2067.23 1643.53 2069.36 1626.1C2071.54 1608.23 2065.35 1588.24 2053.65 1574.62C2035.77 1553.82 2007.82 1547.59 1981.63 1546.28C1957.04 1545.04 1932.1 1546.16 1907.49 1546.52C1904.25 1592.56 1906.72 1640.14 1906.95 1686.37Z"/>
	<path fill="#000000" stroke="#FFFFFF" stroke-width="0.5" vector-effect="non-scaling-stroke" d="M2553.69 2102.79C2569.52 2102.58 2595.97 2099.3 2610.18 2106.81C2613.84 2108.74 2614.3 2108.89 2615.42 2113.05C2621.9 2137.05 2616.77 2257.33 2616.76 2293.4C2616.73 2368.57 2619.54 2444.32 2617.6 2519.39C2617.41 2526.98 2617.55 2535.62 2613.85 2542.4C2608.81 2546.75 2604.62 2548.66 2597.97 2549.65C2585.05 2551.58 2559.36 2552.44 2549.19 2543.19C2544.41 2538.85 2543.1 2533.11 2542.76 2526.96C2541.59 2506.3 2543.88 2484.77 2544.04 2464.02C2544.64 2388.97 2548.81 2302.75 2541.54 2228.76L2539.47 2231.98C2514.01 2271.56 2485.67 2309.28 2457.9 2347.26C2440.57 2370.96 2423.91 2397.2 2403.21 2417.99C2396.44 2424.8 2389.96 2430.39 2380.42 2432.44C2360.73 2427.1 2245.74 2263.11 2225.26 2236.55L2224.88 2282.5C2224.59 2336.96 2224.58 2391.42 2224.85 2445.87C2225.16 2471.58 2228.17 2498.2 2226.66 2523.78C2226.28 2530.24 2225.93 2537.83 2221.71 2543.09C2216.58 2549.5 2199.59 2550.14 2192.13 2550.26C2181.87 2550.42 2164.01 2550.43 2156.61 2542.13C2152.41 2537.43 2152.9 2521.43 2152.63 2514.97C2149.68 2444.59 2152.81 2372.74 2152.84 2302.24C2152.86 2240.44 2148.49 2175.07 2155.46 2113.69L2156.68 2113.99C2155.49 2111.02 2155.56 2112.55 2156.63 2109.39C2170.98 2101.21 2198.43 2105.17 2214.81 2105.56C2233.43 2124.94 2249.03 2148.29 2265.01 2169.88C2305.15 2224.13 2342.92 2281.27 2386.68 2332.61C2405.52 2306.95 2542.8 2107.81 2553.69 2102.79Z"/>
	<path fill="#000000" stroke="#FFFFFF" stroke-width="0.5" vector-effect="non-scaling-stroke" d="M1450.25 1643.15C1450.08 1620.01 1446.07 1489.86 1453.26 1477.11C1455.44 1473.26 1462.99 1470.39 1467.06 1469.8C1484.2 1467.32 1525.72 1467.32 1538.85 1478.06C1540.96 1485.33 1541.16 1492.36 1541.3 1499.87C1542.71 1577.36 1540.19 1655.13 1540.43 1732.68L1540.8 1826.49C1540.88 1843.8 1542.17 1862.04 1539.85 1879.19C1538.73 1887.45 1536.11 1890.6 1529.65 1895.62C1517.56 1895.48 1462.48 1899.96 1456.8 1893.1C1442.14 1875.38 1449.32 1753.36 1449.08 1723.77C1386.21 1724.6 1323.31 1723.55 1260.45 1725.14C1260.39 1748.49 1263.84 1868.66 1258.62 1883.53C1252.37 1889.86 1245.75 1892.24 1237.06 1893.89C1218.42 1897.45 1187.41 1899.37 1171.2 1888.71C1167.68 1884.16 1167.6 1879.81 1167.12 1874.27C1164.47 1843.77 1165.54 1812.26 1165.33 1781.66C1164.94 1727.09 1164.85 1672.52 1165.06 1617.95C1165.17 1586.14 1162.38 1510.53 1167.29 1482.23C1168.37 1476.02 1172.4 1473.35 1177.11 1469.84C1198.52 1468.74 1231.6 1465.63 1251.52 1473.4C1265.99 1489.86 1259.33 1613.72 1259.13 1641.96C1322.84 1642.82 1386.54 1643.22 1450.25 1643.15Z"/>
	<path fill="#000000" stroke="#FFFFFF" stroke-width="0.5" vector-effect="non-scaling-stroke" d="M1848.64 2105.03C1864.88 2104.75 1881.11 2104.72 1897.35 2104.93C1909.28 2124.3 1917.61 2147.11 1926.5 2168.05L1970.37 2271.53C1995.77 2330.16 2020.84 2388.94 2045.57 2447.86C2057.78 2476.68 2074.82 2508.53 2081.61 2539.04C2079.01 2544.07 2077.73 2546.09 2072.33 2548.25C2062.43 2552.2 2033.93 2552.96 2024.01 2548.89C2000.7 2539.35 1980.83 2471.38 1971.05 2447.29C1941.73 2446.77 1912.33 2447.18 1883 2447.13L1767.52 2447.02C1754.18 2481.71 1741.69 2516.65 1725.7 2550.22C1708.1 2550.76 1672.18 2555.76 1658.15 2545.68C1656.15 2534.94 1664.7 2516.06 1668.51 2505.88C1701.01 2419.11 1740.64 2334.51 1776.42 2249C1791.38 2213.23 1814.67 2143.2 1833.83 2113.96C1838.15 2107.37 1841.38 2106.46 1848.64 2105.03ZM1793.2 2383.31C1817.96 2383.87 1842.73 2384.03 1867.5 2383.79C1893.37 2383.84 1919.8 2384.99 1945.61 2383.49C1933.65 2354.77 1881.01 2215.1 1867.77 2203.05C1849.79 2234.37 1833.51 2284.5 1819.32 2319.41C1810.88 2340.16 1799.32 2361.92 1793.2 2383.31Z"/>
	<path fill="#000000" stroke="#FFFFFF" stroke-width="0.5" vector-effect="non-scaling-stroke" d="M2718.95 2104.99C2749.13 2099.1 2795.05 2103.55 2827.52 2103.48L2940.8 2103.45C2960.44 2103.49 2980.96 2102.39 3000.5 2104.2C3004.54 2104.57 3008.32 2105.51 3011.55 2108.15C3015.38 2111.29 3017.15 2115.74 3017.84 2120.49C3019.78 2133.9 3019.51 2155.22 3011.08 2166.23C2995.72 2175.44 2819.12 2170.66 2788.05 2171.23C2787.53 2212.46 2787.93 2253.76 2787.88 2295C2822.59 2295.07 2950.35 2290.48 2976.54 2300.19C2981.31 2304.5 2983.66 2308.41 2985.28 2314.69C2987.59 2323.63 2988.92 2346.56 2982.33 2353.99C2966.62 2371.68 2823.86 2353.29 2791.5 2362.18C2790.41 2362.48 2789.34 2362.83 2788.25 2363.15C2784.96 2403.83 2787.58 2446.23 2787.78 2487.09C2838.83 2488.07 2889.97 2487.08 2941.04 2487.46C2960.44 2487.61 2982.92 2485.66 3002 2488.58C3006.45 2489.26 3009.84 2490.77 3013.47 2493.47C3019.56 2498 3021.01 2504.28 3021.37 2511.46C3021.93 2522.47 3020.39 2537.57 3012.26 2545.81C3008.53 2549.59 3001.47 2549.92 2996.41 2550.32C2952.85 2553.76 2907.63 2550.7 2863.86 2550.16C2830 2549.74 2796.11 2551.58 2762.26 2550.9C2750.45 2550.66 2724.32 2550.54 2716.06 2541.95C2708.39 2512.37 2713.09 2474.64 2713.38 2443.96L2714.47 2301.62C2714.62 2246.3 2711.23 2190.26 2713.59 2135.06C2714.01 2125.14 2714.37 2113.94 2718.95 2104.99Z"/>
	<path fill="#000000" stroke="#FFFFFF" stroke-width="0.5" vector-effect="non-scaling-stroke" d="M795.209 1468.53L969.231 1469.73C1001.52 1469.79 1056.62 1464.64 1085.3 1472.77C1091.42 1478.49 1092.72 1484.5 1093.15 1492.65C1093.96 1508.05 1095.86 1532.82 1085.2 1544.77C1070.06 1553.27 903.688 1548.14 871.044 1547.72C870.211 1581.81 871.119 1616.1 871.233 1650.21C898.923 1649.83 1032.95 1645.31 1047.55 1657.13C1054.25 1662.55 1052.79 1673.69 1052.75 1681.5C1052.83 1691.19 1055.34 1715.72 1048.33 1722.16C1032.63 1736.6 899.708 1730.29 871.46 1730.71L871.727 1829.95C871.772 1845.99 873.399 1863.91 871.334 1879.75C870.802 1883.83 869.002 1887.87 865.91 1890.65C855.41 1900.08 816.394 1897.66 802.12 1895.64C794.031 1894.49 788.401 1892.58 783.229 1886.01C776.649 1857.38 779.909 1822.84 779.894 1793.42L779.728 1655.13L779.601 1542.34C779.581 1521.51 777.772 1498.78 781.072 1478.26C784.617 1472.56 789.333 1471.07 795.209 1468.53Z"/>
	<path fill="#000000" stroke="#FFFFFF" stroke-width="0.5" vector-effect="non-scaling-stroke" d="M995.309 2540.43C993.294 2542.04 991.038 2544.01 988.708 2545.2C976.84 2551.24 949.767 2552.62 937.598 2548.09C932.735 2546.28 929.595 2543.96 927.723 2539C921.894 2523.54 920.85 2174.94 923.127 2132.69C923.544 2124.96 924.869 2118.44 927.809 2111.3C932.521 2106.43 936.134 2104.94 942.679 2104.05C972.375 2100.05 1005.91 2103.45 1036.04 2103.37L1142.35 2103.42C1161.75 2103.48 1181.86 2102.48 1201.17 2104.18C1208.06 2104.79 1218.44 2105.63 1223.65 2110.88C1228.82 2116.12 1228.3 2124.3 1228.21 2131.02C1228.07 2140.97 1229.72 2155.91 1223.15 2163.96C1219.59 2168.32 1213.89 2169.94 1208.55 2170.74C1186.66 2174.03 1160.32 2171.34 1137.95 2171.34L995.154 2171.85C993.791 2216.79 994.955 2262.15 994.936 2307.13C1023.15 2306.95 1164.04 2299.62 1179.97 2309.39C1184.72 2312.3 1187.18 2316.47 1187.88 2321.92C1189.28 2332.81 1190.95 2356.55 1182.9 2364.45C1176.25 2370.96 1162.23 2370.76 1153.43 2371.48C1100.8 2371.64 1048.12 2370.87 995.507 2371.42L995.309 2540.43Z"/>
	<path fill="#000000" stroke="#FFFFFF" stroke-width="0.5" vector-effect="non-scaling-stroke" d="M1307.08 2104.26C1324.46 2103.77 1347.42 2100.5 1363.31 2107.94C1367.88 2113.67 1367.79 2123.04 1368.22 2130.18C1370.82 2174.16 1368.59 2219.39 1368.4 2263.49L1368.41 2488.15C1398.25 2487.78 1574.16 2483.9 1588.08 2493.55C1594.56 2505.39 1593.77 2527.15 1591.72 2540.21C1590.8 2546.07 1587.16 2548.01 1582.73 2551.39C1521.53 2550.23 1460.24 2550.75 1399.03 2550.39C1368.22 2550.21 1329.89 2553.39 1300.05 2546.32L1300.14 2542.25L1298.33 2542.06C1293.68 2522.68 1293.2 2148.46 1296.8 2119.53C1297.76 2111.81 1301.22 2108.89 1307.08 2104.26Z"/>
	<path fill="#000000" stroke="#FFFFFF" stroke-width="0.5" vector-effect="non-scaling-stroke" d="M1650.91 1468.62C1667.28 1469.01 1683.7 1468.11 1700.05 1468.74C1709.8 1469.11 1720.14 1470.1 1727.07 1477.6C1731.1 1505.92 1729.78 1535.55 1729.85 1564.11L1730.13 1698.5C1730.05 1729.41 1730.23 1760.32 1730.67 1791.22C1731.18 1817.8 1732.88 1845.15 1731.11 1871.68C1730.45 1881.48 1727.13 1887.61 1719.87 1894.02L1685.98 1894.87C1673.49 1895.12 1652.82 1897.47 1643.46 1888.46C1641.41 1878.93 1640.23 1869.58 1639.78 1859.84C1636.73 1793.84 1638.86 1726.76 1638.51 1660.63C1638.32 1623.96 1631.68 1506.47 1640.39 1479.19C1642.29 1473.23 1646.07 1471.81 1650.91 1468.62Z"/>
	<path fill="#FEFEFE" fill-opacity="0.011764706" d="M995.507 2371.42C1048.12 2370.87 1100.8 2371.64 1153.43 2371.48C1148.48 2373.94 1143.23 2376.67 1137.76 2377.68C1107.78 2383.24 1035.62 2378.39 1001.21 2378.52C1002.81 2394.41 1004.38 2525.3 1000.74 2536.68L995.309 2540.43L995.507 2371.42Z"/>
	<path fill="#FEFEFE" fill-opacity="0.011764706" d="M1827.99 1467.6C1830.64 1463.49 1828.87 1464.68 1833.8 1463.52C1859.26 1457.56 1963.96 1459.93 1986.53 1470.49C1952.37 1469.81 1918.21 1469.55 1884.04 1469.69C1865.97 1469.62 1845.72 1471.12 1827.99 1467.6Z"/>
</svg>